<svg width="53" height="43" viewBox="0 0 53 43" fill="none" xmlns="http://www.w3.org/2000/svg">
<path d="M37.2275 27.0752C37.2275 20.4478 31.855 15.0752 25.2275 15.0752H15.2275V27.0752H25.2275V42.0752H37.2275V27.0752Z" fill="#ffffff"></path>
<path d="M0.227539 28.0752C0.22754 35.8072 6.49555 42.0752 14.2275 42.0752L22.2275 42.0752L22.2275 30.0752H14.2275C13.123 30.0752 12.2275 29.1798 12.2275 28.0752V27.0752L0.227539 27.0752L0.227539 28.0752Z" fill="#ffffff"></path>
<path d="M25.2275 0.0751953C40.1392 0.0751953 52.2275 12.1635 52.2275 27.0752V42.0752H40.2275V27.0752C40.2275 18.7909 33.5118 12.0752 25.2275 12.0752H14.2275C13.123 12.0752 12.2275 12.9706 12.2275 14.0752V15.0752H0.22754V14.0752C0.227541 6.34321 6.49555 0.0751953 14.2275 0.0751953H25.2275Z" fill="#ffffff"></path>
</svg>